<svg xmlns="http://www.w3.org/2000/svg" width="1600" height="2560" viewBox="0 0 1600 2560" role="img" aria-labelledby="title desc">
  <title id="title">Capa Drone Legal Brasil v2</title>
  <desc id="desc">Capa minimalista premium com referência visual ao Mavic 3 Pro.</desc>

  <defs>
    <linearGradient id="bg" x1="0" y1="0" x2="0" y2="1">
      <stop offset="0%" stop-color="#f4f2ec"/>
      <stop offset="100%" stop-color="#e8e4db"/>
    </linearGradient>

    <linearGradient id="ink" x1="0" y1="0" x2="1" y2="1">
      <stop offset="0%" stop-color="#10243a"/>
      <stop offset="100%" stop-color="#1f3f63"/>
    </linearGradient>

    <linearGradient id="gold" x1="0" y1="0" x2="1" y2="0">
      <stop offset="0%" stop-color="#8f6b2e"/>
      <stop offset="50%" stop-color="#c8a15a"/>
      <stop offset="100%" stop-color="#7c5b24"/>
    </linearGradient>

    <filter id="shadow" x="-20%" y="-20%" width="140%" height="140%">
      <feDropShadow dx="0" dy="10" stdDeviation="14" flood-color="#0e1d2f" flood-opacity="0.22"/>
    </filter>
  </defs>

  <rect width="1600" height="2560" fill="url(#bg)"/>

  <rect x="90" y="90" width="1420" height="2380" rx="34" fill="none" stroke="url(#gold)" stroke-width="3"/>
  <rect x="130" y="130" width="1340" height="2300" rx="24" fill="none" stroke="#d0c4ae" stroke-width="2"/>

  <text x="800" y="260" text-anchor="middle" font-size="38" letter-spacing="8" font-family="Montserrat, Arial, sans-serif" fill="#506070">GUIA EXECUTIVO</text>

  <text x="800" y="430" text-anchor="middle" font-size="168" font-weight="800" font-family="Montserrat, Arial, sans-serif" fill="url(#ink)">DRONE</text>
  <text x="800" y="580" text-anchor="middle" font-size="168" font-weight="800" font-family="Montserrat, Arial, sans-serif" fill="url(#ink)">LEGAL</text>
  <text x="800" y="730" text-anchor="middle" font-size="168" font-weight="800" font-family="Montserrat, Arial, sans-serif" fill="url(#ink)">BRASIL</text>

  <rect x="240" y="790" width="1120" height="2" fill="#cdb891"/>
  <text x="800" y="858" text-anchor="middle" font-size="42" font-family="Source Serif 4, Georgia, serif" fill="#334b64">ANAC • DECEA • ANATEL • SEGURO RETA</text>

  <g transform="translate(800 1420)" filter="url(#shadow)">
    <ellipse cx="0" cy="360" rx="360" ry="52" fill="#cfc8bc"/>

    <rect x="-95" y="-85" width="190" height="210" rx="42" fill="#d3d8de" stroke="#9fa8b2" stroke-width="3"/>
    <path d="M-390 -34 C-325 -82 -220 -100 -95 -72 L-95 -20 C-220 -46 -320 -26 -362 8 Z" fill="#bcc5cf"/>
    <path d="M390 -34 C325 -82 220 -100 95 -72 L95 -20 C220 -46 320 -26 362 8 Z" fill="#bcc5cf"/>
    <rect x="-410" y="-22" width="315" height="64" rx="32" fill="#c9d1da"/>
    <rect x="95" y="-22" width="315" height="64" rx="32" fill="#c9d1da"/>

    <circle cx="-390" cy="10" r="18" fill="#8e98a4"/>
    <circle cx="390" cy="10" r="18" fill="#8e98a4"/>

    <rect x="-120" y="94" width="240" height="134" rx="32" fill="#273a4e"/>

    <circle cx="-54" cy="164" r="24" fill="#0f1a24" stroke="#8594a3" stroke-width="5"/>
    <circle cx="0" cy="164" r="28" fill="#0d1720" stroke="#95a4b3" stroke-width="5"/>
    <circle cx="54" cy="164" r="24" fill="#0f1a24" stroke="#8594a3" stroke-width="5"/>

    <circle cx="-54" cy="164" r="10" fill="#7ad1ff"/>
    <circle cx="0" cy="164" r="12" fill="#97dcff"/>
    <circle cx="54" cy="164" r="10" fill="#7ad1ff"/>
  </g>

  <g>
    <rect x="210" y="2010" width="1180" height="250" rx="24" fill="#ffffff" opacity="0.72"/>
    <text x="800" y="2090" text-anchor="middle" font-size="52" font-weight="700" font-family="Montserrat, Arial, sans-serif" fill="#1f3b58">DO ZERO AO PRÓ</text>
    <text x="800" y="2160" text-anchor="middle" font-size="34" font-family="Source Serif 4, Georgia, serif" fill="#36506a">Legislação aplicada para empreendedor e operador avançado</text>
    <text x="800" y="2220" text-anchor="middle" font-size="28" font-family="Source Serif 4, Georgia, serif" fill="#5b7288">Referência visual inspirada no Mavic 3 Pro</text>
  </g>

  <text x="800" y="2390" text-anchor="middle" font-size="38" letter-spacing="4" font-family="Montserrat, Arial, sans-serif" fill="#294560">WESLEY SANTOS</text>
</svg>
